<svg width="512" height="512" viewBox="0 0 512 512" fill="none" xmlns="http://www.w3.org/2000/svg">
<mask id="mask0" mask-type="alpha" maskUnits="userSpaceOnUse" x="0" y="0" width="512" height="512">
<circle cx="256" cy="256" r="256" fill="#C4C4C4"/>
</mask>
<g mask="url(#mask0)">
<rect y="-0.191147" width="512" height="512" fill="#FF0000"/>
<path d="M93.0175 -1H418.983V512.618H93.0175V-1ZM262.112 393.665L259.056 335.059C259.012 334.095 259.184 333.134 259.56 332.245C259.937 331.357 260.507 330.564 261.231 329.926C261.954 329.287 262.811 328.819 263.739 328.556C264.668 328.292 265.643 328.24 266.594 328.404L324.928 338.658L317.051 316.927C316.731 316.063 316.69 315.12 316.934 314.231C317.177 313.341 317.693 312.551 318.409 311.97L382.312 260.223L367.915 253.5C366.942 253.04 366.171 252.242 365.746 251.254C365.321 250.266 365.271 249.157 365.606 248.135L378.237 209.291L341.43 217.1C340.433 217.308 339.395 217.165 338.491 216.695C337.588 216.224 336.874 215.456 336.473 214.52L329.342 197.746L300.617 228.577C299.96 229.27 299.096 229.731 298.155 229.892C297.214 230.052 296.246 229.903 295.397 229.467C294.548 229.031 293.863 228.331 293.445 227.473C293.027 226.614 292.898 225.644 293.079 224.706L306.932 153.266L284.726 166.1C284.204 166.406 283.626 166.601 283.026 166.674C282.426 166.747 281.818 166.696 281.238 166.524C280.659 166.352 280.121 166.063 279.658 165.675C279.195 165.287 278.816 164.807 278.546 164.267L256 119.99L233.454 164.267C233.184 164.807 232.805 165.287 232.342 165.675C231.879 166.063 231.341 166.352 230.762 166.524C230.183 166.696 229.574 166.747 228.974 166.674C228.374 166.601 227.796 166.406 227.274 166.1L205.068 153.266L218.922 224.706C219.102 225.644 218.973 226.614 218.555 227.473C218.137 228.331 217.453 229.031 216.603 229.467C215.754 229.903 214.786 230.052 213.845 229.892C212.904 229.731 212.04 229.27 211.384 228.577L182.658 197.746L175.527 214.52C175.126 215.456 174.413 216.224 173.509 216.695C172.606 217.165 171.567 217.308 170.57 217.1L133.763 209.291L146.394 248.135C146.729 249.157 146.679 250.266 146.254 251.254C145.829 252.242 145.058 253.04 144.085 253.5L129.689 260.223L193.591 311.97C194.307 312.551 194.823 313.341 195.066 314.231C195.31 315.12 195.269 316.063 194.95 316.927L187.072 338.658L245.406 328.404C246.357 328.24 247.333 328.292 248.261 328.556C249.189 328.819 250.046 329.287 250.769 329.926C251.493 330.564 252.064 331.357 252.44 332.245C252.816 333.134 252.989 334.095 252.944 335.059L249.888 393.665H262.112Z" fill="white"/>
</g>
</svg>
